PathFileType	4	(X/Y/Z)	C:/Users/opensim2020/Desktop/walking_exp_matlab/subject03_walking12_straight_03.trc	
DataRate	CameraRate	NumFrames	NumMarkers	Units	OrigDataRate	OrigDataStartFrame	OrigNumFrames	
100.00	100.00	9	48	mm	100.00	1751	185	
Frame#	Time	LFHD			RFHD			LBHD			RBHD			C7			T10			CLAV			STRN			RBAK			LSHO			LUPA			LELB			LFRM			LWRA			LWRB			LFIN			RSHO			RUPA			RELB			RFRM			RWRA			RWRB			RFIN			LASI			RASI			LPSI			RPSI			LTHI			LKNE			LTIB			LANK			LHEE			LTOE			RTHI			RKNE			RTIB			RANK			RHEE			RTOE			*39			*40			*41			*42			*43			*44			*45			*46			*47			
		X1	Y1	Z1	X2	Y2	Z2	X3	Y3	Z3	X4	Y4	Z4	X5	Y5	Z5	X6	Y6	Z6	X7	Y7	Z7	X8	Y8	Z8	X9	Y9	Z9	X10	Y10	Z10	X11	Y11	Z11	X12	Y12	Z12	X13	Y13	Z13	X14	Y14	Z14	X15	Y15	Z15	X16	Y16	Z16	X17	Y17	Z17	X18	Y18	Z18	X19	Y19	Z19	X20	Y20	Z20	X21	Y21	Z21	X22	Y22	Z22	X23	Y23	Z23	X24	Y24	Z24	X25	Y25	Z25	X26	Y26	Z26	X27	Y27	Z27	X28	Y28	Z28	X29	Y29	Z29	X30	Y30	Z30	X31	Y31	Z31	X32	Y32	Z32	X33	Y33	Z33	X34	Y34	Z34	X35	Y35	Z35	X36	Y36	Z36	X37	Y37	Z37	X38	Y38	Z38	X39	Y39	Z39	X40	Y40	Z40	X41	Y41	Z41	X42	Y42	Z42	X43	Y43	Z43	X44	Y44	Z44	X45	Y45	Z45	X46	Y46	Z46	X47	Y47	Z47	X48	Y48	Z48	

93	0.920	-1060.93494	47.28786	1612.66357	-931.13953	16.06030	1608.38013	-1088.48877	-68.15299	1548.80249	-960.30194	-94.30904	1544.13245	-1029.35840	-90.43737	1391.56641	-1009.01270	-119.95789	1081.49207	-1016.95422	34.92328	1321.68066	-1013.95618	84.52049	1156.91772	-924.65540	-140.25302	1219.48975	-1177.37097	-5.84842	1352.06726	-1247.90430	-40.21738	1155.58972	-1261.23669	-58.72767	1034.11621	-1266.71619	-72.46692	904.11273	-1243.56506	-100.36977	784.88043	-1298.11731	-110.10169	799.35699	-1289.65247	-152.90163	719.46381	-861.13354	-22.68086	1352.33325	-773.89111	-1.09759	1138.29993	-754.01404	33.21069	1033.26758	-750.51898	97.21463	913.35046	-783.06702	165.93544	842.54523	-746.41864	134.23488	819.81433	-751.79852	188.76732	771.09131	-1120.08936	50.58587	926.77814	-886.81769	40.76760	908.75903	-1078.76172	-115.49408	945.42468	-928.01794	-116.16078	945.27411	-1180.95715	70.83250	638.14398	-1140.00146	136.92365	475.52234	-1146.82861	106.69499	275.25027	-1107.32458	95.16143	65.84362	-1073.62085	53.48652	31.11594	-1077.96118	245.56996	31.18076	-847.68738	-51.82600	614.24487	-873.60229	-70.64866	434.98709	-872.67590	-224.96063	311.90973	-915.91370	-387.35748	171.81731	-970.58270	-435.16968	185.66487	-935.95032	-341.04080	35.91036																											 
94	0.930	-1061.76892	61.33191	1612.52795	-932.07751	29.73518	1608.57312	-1089.53906	-54.51571	1549.48450	-961.40631	-80.99079	1545.12573	-1030.57202	-77.20750	1391.64685	-1010.17175	-106.15063	1081.69434	-1017.54535	48.30579	1322.09631	-1014.14764	98.49535	1157.55518	-925.65454	-126.85138	1219.82275	-1177.86035	8.57484	1352.47620	-1248.89941	-23.27716	1155.87830	-1261.93774	-40.42909	1034.12561	-1266.92542	-52.35974	903.93915	-1243.64380	-78.59643	784.59888	-1298.26355	-88.05579	798.56378	-1290.15845	-127.93958	717.41772	-862.22791	-9.93578	1353.01404	-775.49487	10.74345	1138.61218	-755.60834	43.95403	1033.22192	-751.79736	106.09463	912.27759	-784.01007	173.70526	840.09265	-747.30127	141.55945	818.02612	-752.45911	194.94412	768.12024	-1121.18799	64.69234	928.31415	-887.82526	54.67170	909.44305	-1078.96448	-101.55028	945.93793	-928.65356	-102.28941	944.92725	-1181.52856	82.63513	637.35144	-1142.15588	146.70479	473.47787	-1147.61853	112.37849	274.70694	-1107.24255	95.68876	65.93548	-1073.58411	53.55234	31.34934	-1077.54675	245.98956	30.80466	-848.50861	-31.76860	612.03076	-874.17151	-45.88278	432.62061	-873.54340	-202.27158	313.48288	-916.74774	-369.57544	179.85210	-971.50043	-416.61746	196.75890	-936.62128	-329.88055	42.57631	-1032.27905	-39.80191	1654.12793																								 
95	0.940	-1062.53101	75.27471	1612.37976	-932.87384	43.40574	1608.85742	-1090.43506	-40.96369	1550.06079	-962.34363	-67.72007	1546.14185	-1031.75732	-64.32085	1391.51318	-1011.49091	-92.20041	1081.68372	-1017.94714	61.55812	1322.39111	-1014.18262	112.31804	1158.07080	-926.72162	-113.82690	1220.10999	-1178.27771	22.99350	1352.86938	-1249.82861	-6.38784	1156.19434	-1262.73682	-22.08687	1034.07788	-1267.06519	-32.15246	903.34503	-1243.68787	-56.11957	784.20905	-1298.21179	-65.36288	797.61078	-1290.49890	-101.80131	715.30206	-863.27386	2.69333	1353.49805	-776.92126	22.26987	1138.82373	-757.28296	54.54147	1033.07654	-753.02307	114.52748	911.03650	-785.21320	180.93390	837.25500	-748.17981	148.52980	816.18823	-753.34363	200.66304	764.88873	-1122.19727	78.71733	929.61102	-888.59967	68.01796	910.05908	-1079.65857	-87.64941	946.21094	-929.55231	-88.95454	944.45135	-1181.84058	94.21022	636.44867	-1143.09521	156.03828	471.61664	-1148.25537	118.14967	274.08902	-1107.01062	96.37276	65.96838	-1073.36792	53.66037	31.64997	-1077.39746	246.51311	30.48795	-849.39050	-11.97131	609.91626	-875.09003	-20.86379	430.36816	-874.35510	-178.73859	315.01492	-918.66486	-350.64017	188.55930	-973.40594	-397.36102	206.07648	-934.59888	-312.30389	50.64606	-1031.07886	-26.19851	1658.20007																								 
96	0.950	-1063.20679	89.22557	1612.26489	-933.55139	56.98400	1609.25159	-1091.18677	-27.45871	1550.71301	-963.18097	-54.49677	1547.22668	-1032.81384	-51.60470	1391.34277	-1012.92096	-78.32928	1081.69128	-1018.13513	74.61316	1322.77502	-1014.02802	125.78456	1158.63062	-927.78479	-100.96540	1220.31689	-1178.69849	37.36315	1353.19958	-1250.59827	10.46981	1156.31311	-1263.53479	-3.50588	1034.01514	-1267.29114	-10.98378	903.39771	-1243.34265	-33.30627	783.60132	-1298.06067	-42.13119	796.50348	-1290.68115	-74.67474	713.11926	-864.02594	14.81789	1353.89197	-778.19220	33.71249	1138.86536	-758.86749	65.01159	1032.70203	-754.33392	122.89783	909.63544	-786.53235	187.89038	834.33636	-749.03656	155.28175	814.16461	-754.50598	206.20041	761.42224	-1122.95203	92.72558	930.53369	-888.96002	80.76006	910.46399	-1080.72522	-73.72147	946.42682	-930.76740	-75.94157	943.83527	-1182.27258	105.39336	635.57623	-1143.49683	165.23389	469.69052	-1148.48169	123.89749	273.44888	-1106.73523	97.23940	66.06364	-1073.17249	53.78135	32.15655	-1077.08313	246.91693	30.14940	-850.25812	7.45816	608.24841	-876.00098	4.59886	428.49783	-875.97089	-154.41330	316.99249	-920.88245	-329.96014	196.16161	-976.07898	-376.58075	213.34293	-933.44824	-291.93814	58.64333	-1034.39124	-11.47215	1655.26941																								 
97	0.960	-1063.63049	103.12224	1612.37158	-934.05212	70.48335	1609.84045	-1091.78577	-13.95280	1551.58533	-963.80109	-41.34330	1548.58923	-1033.81824	-38.97863	1391.54517	-1014.28760	-64.59608	1081.83630	-1018.23071	87.47152	1323.30811	-1013.85272	139.10660	1159.32141	-929.02820	-88.31557	1220.42175	-1178.81897	51.50564	1353.43921	-1251.32886	27.45949	1156.45154	-1264.37842	15.18172	1033.87622	-1267.34363	9.99455	902.77655	-1242.35889	-10.49633	783.17261	-1297.85461	-18.26354	795.46167	-1290.39978	-45.86512	711.94415	-864.52356	26.70563	1354.13855	-779.23999	44.85974	1138.70752	-760.34747	75.32496	1032.10095	-755.54657	131.16168	908.03772	-788.12939	194.38641	830.99518	-750.01843	161.93558	811.90332	-755.69366	211.14124	757.65247	-1123.50671	106.76168	931.00555	-889.19116	93.44247	910.81659	-1082.14795	-59.76869	946.76001	-932.30988	-63.19334	943.32153	-1183.23999	116.85600	634.81110	-1143.13562	174.54411	468.04938	-1148.32288	129.38058	272.73740	-1106.24902	98.05435	66.26543	-1072.82031	53.83464	32.76170	-1076.85547	247.28175	29.96577	-851.09235	26.34689	607.39667	-876.57111	30.52846	427.39130	-878.15430	-129.07347	319.16064	-922.71259	-307.34146	202.04913	-978.57166	-354.03918	219.13123	-932.83557	-269.54022	64.81128	-1035.20667	2.69618	1656.47205																								 
98	0.970	-1063.92114	116.95924	1612.65149	-934.47003	84.07327	1610.51697	-1092.26855	-0.55316	1552.77344	-964.27661	-28.21046	1550.13928	-1034.66162	-26.23383	1391.97571	-1015.55310	-51.06128	1082.13525	-1018.21881	100.10234	1324.03735	-1013.57959	152.23010	1160.27344	-930.50415	-75.97061	1220.50891	-1178.95886	65.48374	1353.75000	-1251.71082	44.52135	1156.43762	-1265.09863	34.05857	1033.73792	-1267.44592	31.83848	902.80133	-1242.33716	13.97514	782.77850	-1297.51062	6.12702	794.51904	-1290.40051	-17.52316	709.39160	-864.80469	38.34413	1354.34314	-780.12085	55.85063	1138.37354	-761.60364	85.54828	1031.31580	-756.78619	139.11852	906.25580	-789.41083	200.79843	827.72180	-750.89325	168.20692	809.65576	-757.03546	215.93483	753.81604	-1123.90869	120.81703	931.29388	-889.23486	105.60205	911.10846	-1083.90698	-45.76571	947.30872	-934.05048	-50.65867	942.98193	-1182.62488	127.32613	633.77527	-1142.31982	183.49287	466.74225	-1147.91418	134.67729	272.09683	-1105.94714	98.77741	66.40479	-1072.49353	53.89542	33.21061	-1076.56116	247.57700	29.88141	-851.84619	44.57108	607.27313	-876.79938	56.23586	427.43771	-879.58582	-103.48856	321.31656	-924.74951	-282.83646	206.79977	-980.98230	-330.15979	223.09180	-932.37933	-243.88136	70.49936																											 
99	0.980	-1063.96350	130.76794	1613.08704	-934.57446	97.53605	1611.35767	-1092.57581	12.78333	1554.14758	-964.70538	-15.18583	1551.94238	-1035.27625	-13.31125	1392.94385	-1016.75024	-37.72532	1082.66956	-1018.06769	112.58977	1324.85974	-1013.23883	165.25166	1161.32642	-932.24152	-64.03944	1220.41980	-1179.04907	79.32359	1354.17664	-1251.97021	61.71354	1156.48865	-1265.72961	53.17385	1033.68188	-1267.35608	53.56308	902.41290	-1241.77832	38.48297	782.59625	-1297.05457	30.90671	793.76434	-1289.96228	12.26372	708.07629	-864.83002	49.80157	1354.34961	-780.91772	66.58934	1137.95679	-762.74652	95.52216	1030.38440	-757.99347	146.90656	904.33643	-791.15613	206.47586	824.05566	-751.73792	174.13951	807.30695	-758.48480	220.30835	749.93481	-1124.21326	134.87381	931.42285	-889.20392	117.59661	911.50244	-1085.80408	-31.81334	948.12115	-935.93268	-38.22171	943.02557	-1182.21863	138.57196	633.36884	-1141.45667	191.91530	465.48578	-1147.48962	139.46187	271.65625	-1105.80090	99.45953	66.64253	-1072.42334	53.79372	33.73945	-1076.35254	247.73785	29.74851	-852.67517	62.34706	607.75488	-876.80658	81.79790	428.48694	-880.49030	-77.07163	322.76715	-926.78613	-257.20676	209.65247	-983.19916	-305.14151	225.11308	-933.13403	-216.02480	74.58831	-1036.42615	30.86018	1658.69434																								 
100	0.990	-1063.86621	144.48595	1613.65698	-934.54358	110.92532	1612.20911	-1092.79236	26.14892	1555.73669	-964.96564	-2.17113	1553.71680	-1035.67517	-0.50672	1393.88989	-1017.85608	-24.59169	1083.32178	-1017.83911	125.02292	1325.83289	-1012.91309	177.95117	1162.49463	-934.08484	-51.86059	1220.45557	-1179.05054	92.87135	1354.76538	-1252.05701	79.03765	1156.74280	-1266.13416	72.55314	1033.84790	-1267.17590	75.86016	902.63153	-1241.13037	63.53587	782.78961	-1296.51221	56.21260	793.39648	-1289.64343	43.06173	707.71301	-864.80463	61.18605	1354.47375	-781.71851	77.09298	1137.54846	-763.82196	105.37894	1029.44873	-759.15082	154.40675	902.40143	-792.50024	212.20973	820.67035	-752.58270	179.73657	805.01678	-759.95599	224.29398	746.10437	-1124.46130	148.83524	931.56677	-889.31946	129.71753	912.19196	-1087.62305	-18.01548	949.25391	-937.75208	-25.86548	943.49713	-1181.96814	149.82457	633.49152	-1140.25684	199.35880	464.70850	-1147.18713	143.42783	271.35226	-1105.73596	99.93568	66.84395	-1072.49866	53.73083	34.07734	-1076.11658	247.85104	29.73756	-853.75848	80.29649	608.55530	-876.82782	107.00949	430.26074	-881.25140	-50.32110	323.86652	-928.75641	-230.29668	210.72241	-985.16864	-278.95160	225.19415	-934.54865	-186.03522	77.02617	-1036.48621	44.96655	1660.04175																								 
101	1.000	-1063.61243	158.17172	1614.32947	-934.37543	124.32383	1613.05408	-1092.82727	39.43910	1557.40381	-965.06494	10.74013	1555.55347	-1036.00598	12.15680	1394.97632	-1019.01416	-11.50050	1084.13464	-1017.62952	137.33037	1326.88403	-1012.74567	191.45547	1163.87427	-935.88165	-39.95354	1220.64746	-1179.01953	106.16032	1355.63831	-1251.83521	96.33241	1157.30408	-1266.21655	92.22330	1034.46606	-1266.81702	98.56271	903.30096	-1240.84192	89.46487	783.49823	-1295.76526	81.98363	793.57135	-1288.87476	74.25816	708.10614	-864.71997	72.28513	1354.57983	-782.51813	87.38287	1137.26880	-764.87390	114.94881	1028.61938	-760.31671	161.57826	900.52197	-793.87988	217.50403	817.39264	-753.53644	184.98669	802.76575	-761.30859	227.80713	742.45746	-1124.70605	162.69412	931.92175	-889.61469	142.05634	913.20905	-1089.34302	-3.98439	950.20532	-939.42426	-13.53831	944.44037	-1181.68835	161.00476	634.03217	-1139.48584	205.82745	463.72928	-1146.97668	146.80208	271.03842	-1105.91479	100.19385	67.04010	-1072.61731	53.71103	34.40908	-1075.99573	247.90106	29.69171	-854.87225	98.60603	609.70605	-876.88568	132.04584	432.60123	-882.33545	-23.43456	324.82599	-930.63153	-202.31822	209.89961	-986.95453	-251.55389	223.31020	-936.79834	-154.30800	77.74678	-1036.53992	59.03212	1661.56458																								 
